<svg height="155" viewBox="0 0 764 155" width="764" xmlns="http://www.w3.org/2000/svg"><g fill="none"><g transform="translate(136.063 37.063)"><path d="m103.6875 24.5625c-7.5417044.1666675-14.6249669.4479147-21.25.84375s-13.0208025.92708-19.1875 1.59375c-1.2083394 2.5000125-2.4687434 5.3541506-3.78125 8.5625s-2.6562431 6.8958125-4.03125 11.0625c6.0833638-.7083369 12.0728872-1.2499981 17.96875-1.625s11.8020538-.6041662 17.71875-.6875l-10.25 24.8125h-3.8125c-5.000025-.0833337-10.1249737.0729147-15.375.46875-5.2500262.3958353-10.708305 1.0104125-16.375 1.84375-3.6250181 7.4583706-6.9062353 14.8332969-9.84375 22.125-2.9375147 7.291703-5.7187369 14.729129-8.34375 22.3125l-27.125 1.875c5.45836063-15.250076 11.2187197-30.2811759 17.28125-45.09375s12.4687163-29.5103438 19.21875-44.09375l-9.75-.375 9.75-23.5625c15.2500763-.45833563 29.3541019-1.07291281 42.3125-1.84375s24.958278-1.69791125 36-2.78125zm50.030955 4.375c0-4.333355-4.39579-6.5-13.1875-6.5h-2.6875c-.291668 0-.645832.0416662-1.0625.125-.416669.0833338-.833332.125-1.25.125h-2.4375l3.4375 2.125-11.75 25.25c5.916696-.8333375 11.374975-2.6666525 16.375-5.5 6.208364-3.5000175 10.125-7.4791444 11.75-11.9375.541669-1.2500063.8125-2.4791606.8125-3.6875zm25.1875-9.5c0 3.8750194-1.416653 8.2291425-4.25 13.0625-7.916707 13.7500687-20.145751 23.9583-36.6875 30.625 7.166702 5.1666925 11.6875 13.9582713 13.5625 26.375l-23.5625 6.375c-.083334-3.2500163-.302082-6.1145709-.65625-8.59375-.354169-2.4791791-.86458-4.6145744-1.53125-6.40625-1.833343-4.66669-5.124977-8.499985-9.875-11.5-2.500013 5.1666925-4.656241 9.7916462-6.46875 13.875s-3.364577 7.6874844-4.65625 10.8125l-21.6250003 1.4375c3.5833512-8.0417069 8.1874718-18.0103572 13.8125-29.90625 5.6250283-11.8958928 12.4582933-25.9061694 20.5000003-42.03125-1.20834.2083344-2.322912.4062491-3.34375.59375-1.020839.1875009-1.947913.3645825-2.78125.53125l4.6875-18.9375c8.166707-1.70834187 17.229117-2.5625 27.1875-2.5625 23.791785 0 35.6875 5.4166125 35.6875 16.25zm55.218454 11.0625c-1.291673-4.5416894-4.833304-6.8125-10.625-6.8125h-1.4375c-7.416703.66667-14.499966 5.7916187-21.25 15.375-6.291698 9.0833788-9.4375 17.5624606-9.4375 25.4375 0 6.00003 2.520808 9 7.5625 9 6.375032 0 12.812468-3.7707956 19.3125-11.3125 6.416699-7.2083694 9.625-14.0208012 9.625-20.4375 0-2.3750119-.437495-4.4791575-1.3125-6.3125zm14.6875-5.5c.958338 3.1250156 1.4375 5.9791538 1.4375 8.5625 0 4.1250206-1.229154 9.3333019-3.6875 15.625-4.833357 11.3750569-12.312449 21.3124575-22.4375 29.8125-11.291723 9.5417144-22.54161 14.3125-33.75 14.3125-13.500067 0-20.25-7.2082612-20.25-21.625 0-9.7917156 3.166635-20.2916106 9.5-31.5 3.041682-5.4583606 6.499981-10.3958113 10.375-14.8125 3.87502-4.4166887 8.20831-8.3958156 13-11.9375 10.458386-7.58337125 20.583285-11.375 30.375-11.375 13.166733 0 20.666658 6.06243937 22.5 18.1875zm87.655955-14.875c-3.208349 6.6250331-6.239569 13.2187172-9.09375 19.78125s-5.593737 13.1353838-8.21875 19.71875-5.124988 13.1978834-7.5 19.84375-4.645822 13.3645494-6.8125 20.15625l-20.6875 2.6875-9.5-35.0625c-2.125011 4.9166912-4.374988 10.37497-6.75 16.375s-4.937486 12.7291294-7.6875 20.1875l-22.1875 1.5625c4.500023-12.1667275 9.197892-24.2916062 14.09375-36.375s10.052056-24.2707719 15.46875-36.5625l-1.875-7.0625 24.3125-12.6875 8.8125 44.1875c6.041697-16.6250831 12.604131-31.27077 19.6875-43.9375zm63.093455 13.6875-19.875.25c-5.375027 11.8750594-10.364561 23.4895266-14.96875 34.84375-4.60419 11.3542234-9.093728 22.69786-13.46875 34.03125l-22 1.5625c4.375022-12.2083944 8.885393-24.0520259 13.53125-35.53125 4.645856-11.4792241 9.531224-22.9061931 14.65625-34.28125l-19.1875.125 9.3125-20.1875 61.3125-1.0625z" fill="#6128a1"/><path d="m465.904773 21c-5.875029.1250006-11.489556.3437484-16.84375.65625-5.354193.3125016-10.489558.7395806-15.40625 1.28125-.958338 2.00001-1.927078 4.2604041-2.90625 6.78125-.979171 2.5208459-2.010411 5.281235-3.09375 8.28125 4.875025-.5833363 9.656227-.9999988 14.34375-1.25 4.687524-.2500012 9.36456-.4166662 14.03125-.5l-8.3125 20.1875h-3.1875c-4.12502-.0833338-8.260396.0312484-12.40625.34375s-8.468727.80208-12.96875 1.46875c-1.291673 2.3750119-2.447911 4.8229041-3.46875 7.34375-1.020838 2.5208459-1.947912 5.1562363-2.78125 7.90625 5.416694-.625 10.812473-1.104165 16.1875-1.4375s10.812473-.5416663 16.3125-.625l-8.3125 20.25c-8.833377.1666675-17.729122.5416637-26.6875 1.125s-18.229118 1.4374944-27.8125 2.5625c4.583357-12.5417294 9.291643-24.7186909 14.125-36.53125 4.833358-11.8125591 9.937473-23.6145244 15.3125-35.40625l-7.5625.125 7.4375-18.9375c11.500058-.25 22.458282-.69791344 32.875-1.34375 10.416719-.64583656 20.520785-1.44791187 30.3125-2.40625zm82.218455-10.875c-3.208349 6.6250331-6.239569 13.2187172-9.09375 19.78125s-5.593737 13.1353838-8.21875 19.71875-5.124988 13.1978834-7.5 19.84375-4.645823 13.3645494-6.8125 20.15625l-20.6875 2.6875-9.5-35.0625c-2.125011 4.9166912-4.374988 10.37497-6.75 16.375s-4.937486 12.7291294-7.6875 20.1875l-22.1875 1.5625c4.500022-12.1667275 9.197892-24.2916062 14.09375-36.375s10.052056-24.2707719 15.46875-36.5625l-1.875-7.0625 24.3125-12.6875 8.8125 44.1875c6.041697-16.6250831 12.604131-31.27077 19.6875-43.9375zm53.218455 36.0625c0-5.9583631-2.687473-10.7291488-8.0625-14.3125-4.250022-2.7500137-9.7083-4.5416625-16.375-5.375l5 5.25c-4.375022 7.5000375-8.781228 16.1978672-13.21875 26.09375-4.437523 9.8958828-8.947894 21.2603525-13.53125 34.09375 9.083378-1.8750094 17.854124-6.1874662 26.3125-12.9375 8.541709-6.7083669 14.437483-14.3124575 17.6875-22.8125 1.45834-4.1250206 2.1875-7.4583206 2.1875-10zm26.375-8.8125c0 5.2916931-1.291654 11.1874675-3.875 17.6875-6.291698 15.7917456-17.374921 29.5624413-33.25 41.3125-15.916747 11.958393-32.229083 18.624993-48.9375 20-2.375012.250001-9.62494.749996-21.75 1.5 2.79168-7.583371 5.697901-15.114546 8.71875-22.59375 3.020848-7.4792041 6.156233-14.9687125 9.40625-22.46875 3.250016-7.5000375 6.645815-15.0312122 10.1875-22.59375 3.541684-7.5625378 7.24998-15.2187113 11.125-22.96875-1.20834.3750019-2.447911.7083319-3.71875 1-1.27084.2916681-2.552077.604165-3.84375.9375l5.75-23.1875c7.000035-1.62500813 13.958298-2.4375 20.875-2.4375 12.833397 0 23.666622 2.39580937 32.5 7.1875 11.208389 6.0833637 16.8125 14.958275 16.8125 26.625z" fill="#e94b59"/></g><path d="m182.53 30.18c-3.92002 0-5.88-1.7699823-5.88-5.31v-11.64c0-1.9800099.544995-3.39499575 1.635-4.245s2.394992-1.275 3.915-1.275c3.600018 0 6.879985.1499985 9.84.45v4.92h-8.04c-1.020005 0-1.53.4399956-1.53 1.32v1.86l8.07.3v4.62l-8.07.3v1.68c0 .5200026.114999.9099987.345 1.17s.544998.39.945.39h8.28v4.92c-1.240006.1800009-2.734991.3149996-4.485.405-1.750009.0900005-3.424992.135-5.025.135zm23.924286-11.1 6.78 10.92h-6.42l-3.9-6.27-3.42 6.27h-6.42l6.78-11.19-6.87-11.1h6.42l4.02 6.51 3.54-6.51h6.42zm8.444286-11.37h9.78c1.240007 0 2.349996.1899981 3.33.57.980005.3800019 1.799997 1.15499415 2.46 2.325.660004 1.1700059.99 2.8649889.99 5.085 0 3.2200161-.614993 5.3899944-1.845 6.51-1.230006 1.1200056-2.76499 1.68-4.605 1.68-.900004 0-1.814995-.0949991-2.745-.285-.930004-.1900009-1.444999-.2949999-1.545-.315v6.72h-5.82zm9.18 10.95c.580003 0 .984999-.2349977 1.215-.705.230002-.4700023.345-1.204995.345-2.205 0-.9400047-.124998-1.6449976-.375-2.115-.250001-.4700023-.644997-.705-1.185-.705h-3.36v5.73zm15.314287 11.34c-2.02001 0-3.489996-.4599954-4.41-1.38-.920005-.9200046-1.38-2.3899899-1.38-4.41v-16.5h5.82v15.51c0 1.0400052.519995 1.56 1.56 1.56h6.48v5.22zm18.854286.18c-2.260011 0-4.064993-.299997-5.415-.9s-2.374997-1.7199918-3.075-3.36c-.700004-1.6400082-1.05-3.9999846-1.05-7.08s.349996-5.4399918 1.05-7.08c.700003-1.6400082 1.724993-2.76 3.075-3.36 1.350007-.600003 3.154989-.9 5.415-.9s4.064993.299997 5.415.9c1.350007.6 2.374996 1.7199918 3.075 3.36.700003 1.6400082 1.05 3.9999846 1.05 7.08s-.349997 5.4399918-1.05 7.08c-.700004 1.6400082-1.724993 2.759997-3.075 3.36s-3.154989.9-5.415.9zm0-5.22c1.040005 0 1.814997-.1649983 2.325-.495s.869999-.9249957 1.08-1.785.315-2.1399915.315-3.84c0-1.7600088-.099999-3.0649958-.3-3.915-.200001-.8500043-.559997-1.4299985-1.08-1.74s-1.299995-.465-2.34-.465-1.819997.1549985-2.34.465-.88.8899957-1.08 1.74c-.200001.8500042-.3 2.1549912-.3 3.915 0 1.7000085.104999 2.9799957.315 3.84s.569997 1.4549983 1.08 1.785 1.284995.495 2.325.495zm11.984286-17.25h9.51c2.120011 0 3.769994.56499435 4.95 1.695 1.180006 1.1300057 1.77 3.0649863 1.77 5.805 0 1.7200086-.264997 3.0349954-.795 3.945-.530002.9100046-1.274995 1.6449972-2.235 2.205l3.87 8.64h-5.91l-3.12-7.68h-2.22v7.68h-5.82zm8.46 9.99c.660004 0 1.149999-.194998 1.47-.585.320002-.3900019.48-1.0149957.48-1.875s-.154998-1.4599983-.465-1.8c-.310001-.3400017-.804996-.51-1.485-.51h-2.64v4.77zm15.554286-9.99h7.26l6.6 22.29h-6.03l-.9-3.54h-6.69l-.87 3.54h-5.97zm5.58 13.53-2.01-8.58-1.98 8.58zm12.734287-8.31h-5.61v-5.22h17.04v5.22h-5.61v17.07h-5.82zm18.854286 17.25c-3.92002 0-5.88-1.7699823-5.88-5.31v-11.64c0-1.9800099.544995-3.39499575 1.635-4.245s2.394992-1.275 3.915-1.275c3.600018 0 6.879985.1499985 9.84.45v4.92h-8.04c-1.020005 0-1.53.4399956-1.53 1.32v1.86l8.07.3v4.62l-8.07.3v1.68c0 .5200026.114999.9099987.345 1.17s.544998.39.945.39h8.28v4.92c-1.240006.1800009-2.734991.3149996-4.485.405-1.750009.0900005-3.424992.135-5.025.135zm20.684286-.03c-2.840014 0-5.054992-.5299947-6.645-1.59s-2.385-3.0299856-2.385-5.91v-14.94h5.82v14.91c0 .7600038.274997 1.334998.825 1.725s1.344995.585 2.385.585 1.834997-.194998 2.385-.585.825-.9649962.825-1.725v-14.91h5.82v14.94c0 2.8800144-.794992 4.8499947-2.385 5.91s-3.804986 1.59-6.645 1.59zm11.744286-22.44h9.51c2.120011 0 3.769995.56499435 4.95 1.695 1.180006 1.1300057 1.77 3.0649863 1.77 5.805 0 1.7200086-.264997 3.0349954-.795 3.945-.530002.9100046-1.274995 1.6449972-2.235 2.205l3.87 8.64h-5.91l-3.12-7.68h-2.22v7.68h-5.82zm8.46 9.99c.660004 0 1.149999-.194998 1.47-.585.320002-.3900019.48-1.0149957.48-1.875s-.154998-1.4599983-.465-1.8c-.310001-.3400017-.804996-.51-1.485-.51h-2.64v4.77zm17.444287 12.48c-2.560013 0-4.949989-.2899971-7.17-.87v-4.62c2.00001.1800009 4.289987.27 6.87.27 1.020005 0 1.769997-.1149988 2.25-.345.480002-.2300012.72-.6249972.72-1.185v-.36c0-.4200021-.149999-.7449989-.45-.975-.300002-.2300011-.669998-.345-1.11-.345h-1.59c-2.380012 0-4.154994-.5249948-5.325-1.575-1.170006-1.0500053-1.755-2.7449883-1.755-5.085v-.99c0-2.1800109.649993-3.8199945 1.95-4.92 1.300006-1.1000055 3.209987-1.65 5.73-1.65 2.200011 0 4.519988.2899971 6.96.87v4.62c-2.240011-.1800009-4.319991-.27-6.24-.27-.960005 0-1.679998.1149989-2.16.345-.480003.2300011-.72.6649968-.72 1.305v.3c0 1.0200051.649993 1.53 1.95 1.53h1.98c2.02001 0 3.574994.5599944 4.665 1.68 1.090005 1.12 1.635 2.579991 1.635 4.38v.99c0 1.8400092-.319997 3.2649949-.96 4.275s-1.544994 1.6999982-2.715 2.07-2.674991.555-4.515.555zm17.848572-22.47h9.84c3.000015 0 5.094994.98499015 6.285 2.955 1.190006 1.9700099 1.785 4.7049825 1.785 8.205 0 3.8800194-.659993 6.7049912-1.98 8.475-1.320006 1.7700088-3.349986 2.655-6.09 2.655h-9.84zm9.24 17.07c1.08 0 1.824998-.4499955 2.235-1.35s.615-2.4199893.615-4.56c0-1.7000085-.109999-2.9749958-.33-3.825-.220001-.8500043-.529998-1.4149986-.93-1.695s-.929996-.42-1.59-.42h-3.42v11.85zm19.844286 5.37c-2.840014 0-5.054992-.5299947-6.645-1.59-1.590007-1.0600053-2.385-3.0299856-2.385-5.91v-14.94h5.82v14.91c0 .7600038.274998 1.334998.825 1.725.550003.390002 1.344995.585 2.385.585 1.040006 0 1.834998-.194998 2.385-.585.550003-.390002.825-.9649962.825-1.725v-14.91h5.82v14.94c0 2.8800144-.794992 4.8499947-2.385 5.91-1.590007 1.0600053-3.804985 1.59-6.645 1.59z" fill="#e94b59"/><g transform="matrix(0 -1 1 0 0 97)"><path d="m78.4679565 53.2826087c-.2932286 11.2111801-3.7533253 20.5341615-13.0193471 29.8571429 0 0 11.9050786-31.4503106-.7037485-52.515528-13.3712212-22.42236025-32.7829504-30.6242236-32.7829504-30.6242236s1.407497 28.8540373-5.8645707 47.9130435c-8.620919 22.4813664-26.0973398 37.2919254-26.0973398 60.6583855 0 24.015528 21.6989117 43.428571 48.5 43.428571s48.5-19.47205 48.5-43.428571c-.0586457-19.3540377-8.1517533-38.5310563-18.5320435-55.2888203z" fill="#6128a1"/><path d="m39.0798163 60s.7426007 17.601023-3.1417722 29.3152174c-4.6269737 13.7359336-13.9380441 22.8337596-13.9380441 37.1048596 0 14.68734 11.5959957 26.52046 25.9339017 26.579923 14.337906 0 24.8485622-11.952046 25.9339017-26.579923 2.627664-36.807545-34.7879871-66.420077-34.7879871-66.420077z" fill="#e94b59"/><path d="m42.6870762 93.5s.4710348 11.014141-2.0607772 18.278788c-3.0028468 8.612121-9.126299 14.236364-9.126299 23.141414 0 9.139394 7.595436 16.579798 16.9572524 16.579798s16.2507001-7.440404 16.9572523-16.579798c1.7075011-22.907071-22.7274285-41.420202-22.7274285-41.420202z" fill="#fff"/></g></g></svg>